<svg xmlns="http://www.w3.org/2000/svg" xmlns:xlink="http://www.w3.org/1999/xlink" viewBox="0 0 182 225.5"><defs><style>.cls-1{fill:#7fcfd7;}.cls-2{fill:#ebce3a;}.cls-3{fill:#3d8745;}.cls-4{fill:#85c87c;}.cls-5,.cls-6{fill:none;}.cls-5{stroke:#f1f2f2;stroke-width:3px;}.cls-5,.cls-6,.cls-7{stroke-miterlimit:10;}.cls-6,.cls-7{stroke:#fff;stroke-width:2px;}.cls-7{fill:url(#linear-gradient);}</style><linearGradient id="linear-gradient" x1="22.44" y1="195.45" x2="96.83" y2="195.45" gradientTransform="matrix(0.87, -0.06, -0.06, 0.97, 14.18, 7.02)" gradientUnits="userSpaceOnUse"><stop offset="0" stop-color="#fff"/><stop offset="1"/></linearGradient></defs><title>logo</title><g id="Layer_2" data-name="Layer 2"><g id="Layer_1-2" data-name="Layer 1"><path class="cls-1" d="M180.5,174.55a10.59,10.59,0,0,1-5.38,8.66l-78.74,39a13.68,13.68,0,0,1-10.76,0l-78.74-39a10.59,10.59,0,0,1-5.38-8.66V6.83a6,6,0,0,1,6-6h167a6,6,0,0,1,6,6Z"/><path class="cls-2" d="M9.68,45.32V9l24.82,26V11.29h5.13v36.1L14.82,21.49V45.32Z"/><path class="cls-2" d="M46.4,28.15a16.66,16.66,0,0,1,5.26-12.34,17.34,17.34,0,0,1,12.61-5.16,17,17,0,0,1,12.47,5.2A17,17,0,0,1,82,28.35,16.73,16.73,0,0,1,76.72,40.8a18,18,0,0,1-24.55.57A16.7,16.7,0,0,1,46.4,28.15Zm5.18.07a12.26,12.26,0,0,0,3.79,9.27,12.13,12.13,0,0,0,8.7,3.64,12.26,12.26,0,0,0,9-3.7,12.55,12.55,0,0,0,3.68-9.13,12.43,12.43,0,0,0-3.64-9.12,12,12,0,0,0-9-3.7,12.12,12.12,0,0,0-9,3.7A12.31,12.31,0,0,0,51.58,28.22Z"/><path class="cls-2" d="M87.23,45.32,94.39,8.73l11.68,26.45,12.1-26.45,6.44,36.59h-5.27l-3.28-20.54L106,46.88,96.2,24.76,92.54,45.32Z"/><path class="cls-2" d="M151.8,37.05H137.24l-3.79,8.27h-5.54L144.75,9.15,161,45.32h-5.62Zm-2.09-4.82-5.05-11.57-5.29,11.57Z"/><path class="cls-2" d="M14.82,78.76H29.5V65.45h5.13v34H29.5V83.59H14.82V99.48H9.68v-34h5.14Z"/><path class="cls-2" d="M62.77,91.21H48.2l-3.79,8.27H38.88L55.72,63.31,72,99.48H66.34Zm-2.09-4.82-5-11.57L50.34,86.39Z"/><path class="cls-2" d="M99.77,67.28v6.08a14.26,14.26,0,0,0-9.21-3.72,11.71,11.71,0,0,0-8.84,3.77,12.68,12.68,0,0,0-3.61,9.16,12.42,12.42,0,0,0,3.61,9,12,12,0,0,0,8.86,3.68,11,11,0,0,0,4.61-.88,14.08,14.08,0,0,0,2.19-1.19,25.12,25.12,0,0,0,2.39-1.81V97.6a18.54,18.54,0,0,1-9.25,2.49A17,17,0,0,1,78.07,95a16.85,16.85,0,0,1-5.14-12.38A17.43,17.43,0,0,1,77.23,71a17.1,17.1,0,0,1,13.68-6.24A17.36,17.36,0,0,1,99.77,67.28Z"/><path class="cls-2" d="M112.33,79l13.25-13.57h6.85l-15.38,15.4,15.47,18.63h-6.88L113.39,84.34l-1.06,1V99.48H107.2v-34h5.13Z"/><path class="cls-2" d="M155.09,70.52,150.92,73a7.25,7.25,0,0,0-2.22-2.65,6,6,0,0,0-6.4.51,3.75,3.75,0,0,0-1.41,3c0,1.66,1.24,3,3.71,4L148,79.25a14.43,14.43,0,0,1,6.06,4.08A9.21,9.21,0,0,1,156,89.25,10.42,10.42,0,0,1,152.84,97a10.77,10.77,0,0,1-7.83,3.08,10.44,10.44,0,0,1-7.31-2.62,12.06,12.06,0,0,1-3.55-7.38l5.2-1.15a9,9,0,0,0,1.23,4.14,5.86,5.86,0,0,0,8.62.6,6,6,0,0,0,1.31-5.9,4.62,4.62,0,0,0-.86-1.52,7.06,7.06,0,0,0-1.51-1.3,14,14,0,0,0-2.2-1.15l-3.28-1.37q-7-3-7-8.64a8.21,8.21,0,0,1,2.93-6.41,10.63,10.63,0,0,1,7.3-2.6Q151.78,64.79,155.09,70.52Z"/><path class="cls-3" d="M1.5,176.16,7.06,185l78.16,38.67,15-1.72,75.36-37.28,4.89-9.06s-31.88-29-77.75-52.33S1.5,89.24,1.5,89.24Z"/><path class="cls-4" d="M22.79,191.75s20-23.26,85.25-53.85,73-25.55,73-25.55l-.56,68.87L91,225.5Z"/><path class="cls-5" d="M180.5,175.22a10.59,10.59,0,0,1-5.38,8.66l-78.74,39a13.76,13.76,0,0,1-10.76,0l-78.74-39a10.59,10.59,0,0,1-5.38-8.66V7.5a6,6,0,0,1,6-6h167a6,6,0,0,1,6,6Z"/><circle class="cls-6" cx="9.27" cy="112.83" r="3.67"/><line class="cls-6" x1="9.27" y1="115.65" x2="9.27" y2="173.25"/><circle class="cls-6" cx="9.27" cy="176.42" r="3.67"/><line class="cls-6" x1="12.94" y1="178.52" x2="87.33" y2="215.33"/><circle class="cls-6" cx="91" cy="216.14" r="3.67"/><circle class="cls-6" cx="172.67" cy="176.42" r="3.67"/><line class="cls-6" x1="169" y1="178.52" x2="94.61" y2="215.33"/><line class="cls-6" x1="172.67" y1="11.58" x2="172.67" y2="173.1"/><circle class="cls-6" cx="172.67" cy="8.92" r="3.67"/><line class="cls-6" x1="9.27" y1="164.23" x2="83.67" y2="201.03"/><line class="cls-6" x1="20.52" y1="169.79" x2="22.93" y2="177.66"/><line class="cls-7" x1="22.44" y1="177.04" x2="84.89" y2="207.94"/><circle class="cls-6" cx="26.46" cy="162.9" r="3.67"/><line class="cls-6" x1="9.27" y1="154.4" x2="23.83" y2="161.61"/><circle class="cls-6" cx="20.04" cy="146.76" r="3.67"/><line class="cls-6" x1="8.91" y1="141.25" x2="17.41" y2="145.46"/><line class="cls-6" x1="9.27" y1="120.04" x2="14.01" y2="122.39"/><line class="cls-6" x1="13.47" y1="121.52" x2="13.47" y2="138.44"/><line class="cls-6" x1="172.67" y1="17.74" x2="166.77" y2="21.95"/><line class="cls-6" x1="167.18" y1="21.13" x2="167.18" y2="158"/><line class="cls-6" x1="167.18" y1="112.5" x2="161.28" y2="116.7"/><line class="cls-6" x1="161.69" y1="115.88" x2="161.69" y2="165.22"/><circle class="cls-6" cx="144.51" cy="173.1" r="3.67"/><line class="cls-6" x1="162.25" y1="164.33" x2="147.69" y2="171.53"/><circle class="cls-6" cx="150.57" cy="156.6" r="3.67"/><line class="cls-6" x1="161.69" y1="151.1" x2="153.19" y2="155.3"/></g></g></svg>